<svg xmlns="http://www.w3.org/2000/svg" viewBox="0 0 1024 1024" width="1024" height="1024">
  <rect width="1024" height="1024" rx="224" fill="#111418"/>
  <line x1="392" y1="304" x2="632" y2="304" stroke="#4ade9a" stroke-width="16" stroke-linecap="round"/>
  <line x1="632" y1="304" x2="752" y2="512" stroke="#2dd4bf" stroke-width="16" stroke-linecap="round"/>
  <line x1="752" y1="512" x2="632" y2="720" stroke="#3bc4ff" stroke-width="16" stroke-linecap="round"/>
  <line x1="632" y1="720" x2="392" y2="720" stroke="#3bc4ff" stroke-width="16" stroke-linecap="round"/>
  <line x1="392" y1="720" x2="272" y2="512" stroke="#2dd4bf" stroke-width="16" stroke-linecap="round"/>
  <line x1="272" y1="512" x2="392" y2="304" stroke="#4ade9a" stroke-width="16" stroke-linecap="round"/>
  <line x1="392" y1="304" x2="337" y2="209" stroke="#4ade9a" stroke-width="11" stroke-linecap="round"/>
  <line x1="632" y1="304" x2="687" y2="209" stroke="#4ade9a" stroke-width="11" stroke-linecap="round"/>
  <line x1="752" y1="512" x2="862" y2="512" stroke="#2dd4bf" stroke-width="11" stroke-linecap="round"/>
  <line x1="632" y1="720" x2="687" y2="815" stroke="#3bc4ff" stroke-width="11" stroke-linecap="round"/>
  <line x1="392" y1="720" x2="337" y2="815" stroke="#3bc4ff" stroke-width="11" stroke-linecap="round"/>
  <line x1="272" y1="512" x2="162" y2="512" stroke="#2dd4bf" stroke-width="11" stroke-linecap="round"/>
  <circle cx="337" cy="209" r="24" fill="#4ade9a"/>
  <circle cx="687" cy="209" r="24" fill="#4ade9a"/>
  <circle cx="862" cy="512" r="24" fill="#2dd4bf"/>
  <circle cx="687" cy="815" r="24" fill="#3bc4ff"/>
  <circle cx="337" cy="815" r="24" fill="#3bc4ff"/>
  <circle cx="162" cy="512" r="24" fill="#2dd4bf"/>
  <circle cx="392" cy="304" r="13" fill="#4ade9a"/>
  <circle cx="632" cy="304" r="13" fill="#4ade9a"/>
  <circle cx="752" cy="512" r="13" fill="#2dd4bf"/>
  <circle cx="632" cy="720" r="13" fill="#3bc4ff"/>
  <circle cx="392" cy="720" r="13" fill="#3bc4ff"/>
  <circle cx="272" cy="512" r="13" fill="#2dd4bf"/>
  <text x="430" y="580" font-family="Georgia,serif" font-size="210" font-weight="700" fill="#ffffff" text-anchor="middle">T</text>
  <text x="594" y="580" font-family="Georgia,serif" font-size="210" font-weight="400" font-style="italic" fill="#4ade9a" text-anchor="middle">L</text>
</svg>
